<?xml version="1.0" encoding="UTF-8" standalone="no"?>
<!-- Created with Inkscape (http://www.inkscape.org/) -->

<svg
   xmlns:dc="http://purl.org/dc/elements/1.1/"
   xmlns:cc="http://creativecommons.org/ns#"
   xmlns:rdf="http://www.w3.org/1999/02/22-rdf-syntax-ns#"
   xmlns:svg="http://www.w3.org/2000/svg"
   xmlns="http://www.w3.org/2000/svg"
   version="1.1"
   width="250.006"
   height="425.00171"
   id="svg2">
  <metadata
     id="metadata113">
    <rdf:RDF>
      <cc:Work
         rdf:about="">
        <dc:format>image/svg+xml</dc:format>
        <dc:type
           rdf:resource="http://purl.org/dc/dcmitype/StillImage" />
        <dc:title></dc:title>
      </cc:Work>
    </rdf:RDF>
  </metadata>
  <defs
     id="defs4">
    <clipPath
       id="a">
      <path
         d="m -420.39,-343.392 7.777,-7.815 7.778,7.815 -7.778,7.815 z"
         id="path7" />
    </clipPath>
  </defs>
  <g
     transform="matrix(0.80763665,0,0,0.80789363,0.0127598,-0.00232721)"
     id="g9"
     style="font-size:23.68600082px;letter-spacing:0;word-spacing:0;fill:#333333;font-family:VomZom">
    <path
       d="m 8.248,6.614 c 4.01,-0.092 7.776,3.17 8.2,7.17 0.506,3.516 -1.562,7.167 -4.802,8.593 -1.964,0.975 -4.18,0.675 -6.292,0.725 H 3.29 v 6.61 H 0.024 c 0.006,-5.1 -0.013,-10.2 0.01,-15.3 0.107,-3.8 3.218,-7.202 6.974,-7.708 0.41,-0.06 0.826,-0.09 1.24,-0.09 z m 0,13.22 c 2.357,0.058 4.568,-1.78 4.92,-4.116 0.47,-2.35 -1.03,-4.876 -3.322,-5.58 -2.214,-0.787 -4.878,0.247 -5.96,2.338 -0.838,1.43 -0.54,3.117 -0.596,4.69 v 2.668 h 4.958 z m 9.776,-13.3 h 3.23 v 16.488 h -3.23 V 6.534 z m 12.94,10.37 h 0.116 l 4.593,6.124 h 4.004 L 33.435,14.548 38.97,6.542 H 34.966 L 31.08,12.194 H 30.963 L 27.077,6.542 h -4.004 l 5.534,8.007 -6.24,8.477 h 4.003 z"
       id="path11" />
    <path
       d="m 46.997,6.534 c 3.272,-0.064 6.41,2.08 7.622,5.106 0.63,1.406 0.62,2.963 0.6,4.472 v 6.91 c -2.915,-0.01 -5.832,0.02 -8.75,-0.016 -3.35,-0.163 -6.416,-2.607 -7.375,-5.815 -0.88,-2.787 -0.15,-6.025 1.922,-8.11 1.547,-1.6 3.745,-2.566 5.978,-2.545 z m 4.958,13.22 c -0.014,-1.833 0.03,-3.668 -0.025,-5.5 -0.193,-2.456 -2.468,-4.514 -4.933,-4.45 -2.344,-0.057 -4.553,1.76 -4.92,4.08 -0.43,2.228 0.85,4.654 2.974,5.485 1.31,0.57 2.756,0.333 4.14,0.383 h 2.766 z M 65.06,6.614 c 3.87,-0.095 7.487,2.95 8.103,6.76 0.7,3.614 -1.34,7.516 -4.705,9.003 -3.287,1.552 -7.514,0.552 -9.774,-2.29 -1.4,-1.65 -2.005,-3.846 -1.886,-5.985 V 0.005 h 3.268 v 6.61 h 4.995 z m 0,13.22 c 2.482,0.066 4.75,-2.018 4.933,-4.487 0.31,-2.454 -1.508,-4.922 -3.937,-5.368 -1.343,-0.186 -2.707,-0.06 -4.06,-0.1 h -1.93 c 0.02,1.864 -0.045,3.73 0.038,5.59 0.26,2.46 2.484,4.41 4.957,4.36 z m 17.708,-13.3 c 3.272,-0.064 6.41,2.08 7.622,5.106 0.632,1.406 0.623,2.963 0.603,4.472 v 6.91 c -2.916,-0.01 -5.833,0.02 -8.75,-0.016 -3.35,-0.163 -6.417,-2.607 -7.376,-5.815 -0.88,-2.787 -0.15,-6.025 1.922,-8.11 1.545,-1.6 3.743,-2.566 5.976,-2.545 z m 4.957,13.22 c -0.014,-1.833 0.03,-3.668 -0.024,-5.5 -0.19,-2.456 -2.466,-4.514 -4.93,-4.45 -2.345,-0.057 -4.554,1.76 -4.92,4.08 -0.43,2.228 0.85,4.654 2.973,5.485 1.308,0.57 2.754,0.333 4.137,0.383 h 2.765 z M 108.98,6.574 c -0.006,5.088 0.014,10.176 -0.01,15.263 -0.118,4.004 -3.56,7.603 -7.576,7.812 -0.763,0.04 -1.528,0.014 -2.292,0.02 v -3.267 c 1.395,-0.007 2.886,0.135 4.12,-0.655 1.544,-0.866 2.524,-2.612 2.49,-4.377 -2.897,2.337 -7.387,2.216 -10.204,-0.195 -2.053,-1.657 -3.174,-4.322 -3.016,-6.945 V 6.575 h 3.268 c 0.015,2.91 -0.03,5.823 0.024,8.732 0.177,2.35 2.235,4.356 4.59,4.474 2.428,0.25 4.818,-1.58 5.24,-3.98 0.184,-1.343 0.06,-2.71 0.097,-4.064 v -5.16 h 3.27 z"
       id="path13" />
  </g>
  <path
     d="m 166.6606,15.095715 -4.43019,-4.45 c 1.85308,-2.4659995 1.62607,-6.2129995 -0.48602,-8.4549995 -2.03008,-2.27700002 -5.65024,-2.88000002 -8.28335,-1.33000002 -2.53011,1.41000002 -3.94217,4.56000002 -3.25514,7.39600002 0.64603,2.9629995 3.47015,5.2939995 6.51028,5.2499995 1.40006,0.007 2.80012,-0.45 3.93417,-1.273 1.50306,1.505 2.99612,3.02 4.50719,4.52 0.91304,0.81 2.49711,-0.553 1.61807,-1.532 l -0.11301,-0.127 z m -9.89042,-3.178 c -2.61011,0.072 -5.01322,-2.1799995 -5.13722,-4.7999995 -0.20501,-2.46 1.57507,-4.91 3.99017,-5.408 2.3301,-0.555 4.94721,0.734 5.87025,2.968 1.00705,2.26 0.14801,5.197 -2.00008,6.4619995 -0.81004,0.507 -1.76508,0.783 -2.72212,0.778 z"
     id="path15"
     style="fill:#ffffff" />
  <path
     d="m 68.484002,251.77972 c -0.680001,0.3 -1.41,0.505 -2.175,0.596 0.782,-0.47 1.383,-1.21 1.665,-2.095 -0.732,0.432 -1.542,0.747 -2.404,0.917 -0.69,-0.736 -1.675,-1.196 -2.764,-1.196 -2.445,0 -4.242,2.28 -3.69,4.65 -3.146,-0.157 -5.937,-1.665 -7.804,-3.956 -0.992,1.702 -0.515,3.93 1.172,5.056 -0.62,-0.018 -1.205,-0.19 -1.716,-0.473 -0.04,1.755 1.217,3.395 3.038,3.76 -0.533,0.146 -1.117,0.18 -1.71,0.066 0.48,1.505 1.88,2.6 3.537,2.63 -1.592,1.247 -3.597,1.805 -5.606,1.568 1.678,1.076 3.668,1.703 5.807,1.703 7.03,0 11.003,-5.938 10.763,-11.264 0.738,-0.534 1.379999,-1.2 1.888,-1.96 z"
     id="path19"
     style="fill:#555555" />
  <path
     d="m 110.52598,202.35972 c 1.047,0 1.985,-0.57 2.626,-1 l 0,8.145 c -0.64,0.43 -1.58,1 -2.625,1 -1.045,0 -1.982,-0.31 -2.623,-0.74 -0.64,-0.432 -1.58,-0.742 -2.625,-0.742 -1.045,0 -1.982,0.534 -2.624,0.965 l 0,-8.144 c 0.64,-0.43 1.58,-0.962 2.625,-0.962 1.045,0 1.985,0.31 2.626,0.74 0.64,0.43 1.58,0.74 2.624,0.74 z m -9.624,-2.356 c 0.483,0 0.875,0.392 0.875,0.875 l 0,13.125 -1.75,0 0,-13.125 c 0,-0.483 0.394,-0.875 0.877,-0.875 z"
     id="path21"
     style="fill:#ffffff" />
  <path
     d="m 100.02598,100.00172 h 22 v 2 h -22 z m 0,7 h 22 v 2 h -22 z m 0,7 h 22 v 2 h -22 z"
     id="path23"
     style="fill:#636363" />
  <g
     transform="translate(0.006,0.00171548)"
     id="g31"
     style="fill:#ffffff">
    <path
       d="m 105.308,62.668 c -0.486,0.074 -0.97,0.17 -1.456,0.227 -0.664,0.04 -1.29,-0.497 -1.36,-1.157 l -0.11,-0.722 c -0.757,0.76 -1.522,1.514 -2.274,2.28 -0.212,0.256 -0.007,0.675 0.32,0.684 l 1.36,0.254 c 0.096,0.493 0.18,0.987 0.28,1.478 0.093,0.32 0.554,0.388 0.747,0.123 l 2.877,-2.877 c -0.122,-0.102 -0.21,-0.278 -0.384,-0.29 z"
       id="path33" />
    <path
       d="m 109.387,62.147 c 0.52,0.058 1.036,0.232 1.558,0.194 0.5,-0.094 0.63,-0.62 0.66,-1.055 0.115,-0.502 0.02,-1.183 0.58,-1.436 0.445,-0.253 0.953,-0.41 1.342,-0.74 0.35,-0.37 0.143,-0.875 -0.085,-1.245 -0.195,-0.466 -0.66,-0.94 -0.392,-1.47 0.216,-0.475 0.542,-0.912 0.666,-1.42 0.064,-0.505 -0.4,-0.79 -0.8,-0.955 -0.443,-0.266 -1.12,-0.385 -1.19,-0.997 -0.1,-0.5 -0.092,-1.03 -0.287,-1.503 -0.248,-0.446 -0.79,-0.406 -1.21,-0.303 -0.505,0.04 -1.1,0.34 -1.52,-0.082 -0.383,-0.35 -0.697,-0.79 -1.136,-1.068 -0.48,-0.233 -0.876,0.19 -1.17,0.514 -0.372,0.34 -0.71,0.92 -1.298,0.764 -0.495,-0.055 -0.987,-0.223 -1.485,-0.182 -0.5,0.097 -0.627,0.624 -0.66,1.058 -0.114,0.502 -0.017,1.184 -0.58,1.437 -0.443,0.25 -0.952,0.407 -1.34,0.74 -0.35,0.37 -0.143,0.873 0.085,1.242 0.195,0.466 0.662,0.94 0.392,1.47 -0.216,0.474 -0.54,0.91 -0.666,1.42 -0.062,0.505 0.4,0.79 0.8,0.955 0.445,0.265 1.123,0.384 1.19,0.997 0.1,0.5 0.094,1.03 0.29,1.503 0.244,0.446 0.785,0.405 1.21,0.302 0.502,-0.04 1.097,-0.34 1.52,0.082 0.38,0.35 0.694,0.787 1.132,1.067 0.51,0.244 0.906,-0.236 1.222,-0.566 0.343,-0.306 0.634,-0.827 1.172,-0.722 z m -2.103,-0.706 c -2.212,0.033 -4.28,-1.67 -4.688,-3.84 -0.467,-2.093 0.675,-4.39 2.614,-5.294 1.88,-0.962 4.345,-0.428 5.692,1.19 1.462,1.63 1.557,4.274 0.216,6.006 -0.884,1.2 -2.342,1.945 -3.834,1.942 z"
       id="path35" />
    <path
       d="m 107.284,52.517 c -2.255,0.014 -4.085,1.85 -4.085,4.11 0,2.255 1.83,4.093 4.083,4.107 2.255,-0.014 4.085,-1.85 4.085,-4.108 0,-2.258 -1.83,-4.095 -4.086,-4.11 z m 7.138,10.735 -2.236,-2.236 c -0.06,0.335 -0.08,0.68 -0.178,1.007 -0.207,0.608 -0.894,0.988 -1.52,0.845 l -1.228,-0.2 c -0.174,0.014 -0.262,0.187 -0.384,0.29 l 2.92,2.92 c 0.236,0.26 0.71,0.08 0.726,-0.267 0.086,-0.457 0.17,-0.916 0.257,-1.374 0.49,-0.095 0.985,-0.18 1.476,-0.28 0.294,-0.09 0.39,-0.49 0.166,-0.703 z"
       id="path37" />
  </g>
  <g
     transform="translate(0.006,0.00171548)"
     id="g39"
     style="fill:#ffffff">
    <path
       d="m 61.663,357.677 h -0.542 c -0.077,0 -0.142,0.026 -0.192,0.077 -0.05,0.05 -0.076,0.117 -0.076,0.197 v 2.744 c 0,0.377 -0.132,0.7 -0.397,0.968 -0.265,0.268 -0.584,0.404 -0.956,0.404 h -7.04 c -0.373,0 -0.69,-0.134 -0.957,-0.403 -0.267,-0.269 -0.397,-0.59 -0.397,-0.967 v -7.13 c 0,-0.376 0.133,-0.7 0.398,-0.967 0.265,-0.267 0.585,-0.404 0.957,-0.404 h 5.957 c 0.08,0 0.144,-0.026 0.195,-0.077 0.05,-0.053 0.076,-0.118 0.076,-0.198 v -0.55 c 0,-0.08 -0.026,-0.145 -0.076,-0.197 -0.05,-0.05 -0.116,-0.077 -0.195,-0.077 H 52.46 c -0.67,0 -1.244,0.242 -1.72,0.724 -0.477,0.483 -0.716,1.064 -0.716,1.744 v 7.13 c 0,0.678 0.24,1.26 0.715,1.742 0.476,0.483 1.05,0.724 1.72,0.724 h 7.04 c 0.67,0 1.245,-0.24 1.72,-0.724 0.478,-0.482 0.717,-1.064 0.717,-1.743 v -2.742 c 0,-0.08 -0.026,-0.145 -0.077,-0.197 -0.05,-0.05 -0.115,-0.077 -0.194,-0.077 z"
       id="path41" />
    <path
       d="M 65.02,350.163 C 64.914,350.053 64.787,350 64.64,350 h -4.33 c -0.148,0 -0.275,0.054 -0.382,0.163 -0.107,0.108 -0.16,0.237 -0.16,0.385 0,0.148 0.053,0.277 0.16,0.386 l 1.49,1.508 -5.517,5.587 c -0.054,0.055 -0.082,0.12 -0.082,0.195 0,0.074 0.028,0.14 0.084,0.197 l 0.966,0.976 c 0.056,0.057 0.12,0.085 0.194,0.085 0.074,0 0.14,-0.028 0.195,-0.086 l 5.516,-5.587 1.49,1.508 c 0.107,0.11 0.234,0.164 0.38,0.164 0.146,0 0.274,-0.055 0.382,-0.163 0.107,-0.11 0.16,-0.237 0.16,-0.386 v -4.387 c 0,-0.148 -0.053,-0.277 -0.16,-0.385 z"
       id="path43" />
  </g>
  <path
     d="m 207.02598,250.63972 c -3.515,0 -6.365,2.438 -6.365,5.447 0,1.57 0.78,2.98 2.02,3.973 -0.233,0.635 -0.628,1.464 -1.3,2.312 1.273,0 2.91,-0.176 4.172,-0.99 0.474,0.097 0.966,0.152 1.474,0.152 3.518,0 6.368,-2.44 6.368,-5.447 0,-3.007 -2.85,-5.447 -6.366,-5.447 z"
     id="path45"
     style="fill:none;stroke:#ffffff;stroke-width:1.26800001" />
  <g
     transform="translate(0.006,0.00171548)"
     id="g47"
     style="fill:#ffffff">
    <path
       d="m 163.146,352.572 v 8.57 h -10.5 v -8.57 h 10.5 m 0.875,-0.857 h -12.25 V 362 h 12.25 v -10.285 z m -14,-1.715 v 10.286 h 0.877 v -9.428 h 11.375 V 350 z"
       id="path49" />
    <path
       d="m 152.334,352.232 h 11.06 v 9.394 h -11.06 z"
       id="path51" />
  </g>
  <g
     transform="translate(0.006,0.00171548)"
     id="g53"
     style="fill:#666666">
    <path
       d="m 204.04,149.997 h 4.02 v 6.555 h -4.02 z"
       id="path55" />
    <path
       d="m -420.11,-342 h 15 v 10.048 h -15 z"
       transform="matrix(0.8037,0,0,0.77824,537.666,422.157)"
       clip-path="url(#a)"
       id="path57" />
  </g>
  <path
     d="m 212.63298,129.61172 -3.168,3.052 0.72,4.338 -3.886,-2.067 -3.906,2.025 0.766,-4.33 -3.135,-3.086 4.36,-0.61 1.967,-3.932 1.927,3.954 z m -6.687,-29.612005 c -3.27,0 -5.922,2.286005 -5.922,5.107005 0,1.47 0.726,2.793 1.88,3.725 -0.217,0.595 -0.585,1.373 -1.21,2.168 1.185,0 2.708,-0.165 3.88,-0.93 0.442,0.092 0.9,0.144 1.373,0.144 3.273,0 5.925,-2.286 5.925,-5.107 0,-2.82 -2.652,-5.107005 -5.923,-5.107005 z"
     id="path59"
     style="fill:#666666" />
  <path
     d="m 200.02598,353.20972 v 5.837 c 0,0.527 0.43,0.955 0.956,0.955 h 10.434 c 0.527,0 0.955,-0.428 0.955,-0.955 v -5.837 h -12.345 z m 12.345,-1.138 c 0,-0.53 -0.427,-0.956 -0.955,-0.956 h -5.137 c -0.528,0 -1.062,-0.25 -1.194,-0.557 -0.134,-0.308 -0.668,-0.557 -1.195,-0.557 h -2.433 c -0.527,0 -1.06,0.25 -1.193,0.557 -0.133,0.308 -0.24,0.984 -0.24,1.512 v 0.182 h 12.344 v -0.184 z m -51.678,-196.126 -9.418,-5.746 c -0.688,-0.443 -1.25,-0.117 -1.25,0.725 v 11.154 c 0,0.842 0.562,1.168 1.25,0.725 l 9.416,-5.746 c 0,0 0.334,-0.232 0.334,-0.556 0,-0.324 -0.333,-0.556 -0.333,-0.556 z m -2.077,96.344 3.125,3.124 -7.497,7.497 -3.125,-3.126 7.498,-7.497 z m 3.718,2.5 -3.092,-3.094 1.325,-1.325 c 0.49,-0.49 1.28,-0.49 1.77,0 l 1.325,1.323 c 0.488,0.488 0.488,1.28 0,1.767 l -1.326,1.327 z m -11.996,9.215 -0.312,-0.313 0.82,-2.616 2.11,2.11 -2.618,0.82 z"
     id="path61"
     style="fill:#ffffff" />
  <path
     d="m 208.62598,180.49972 c 0,0.978 -0.683,1.77 -1.528,1.77 -0.844,0 -1.53,-0.792 -1.53,-1.77 0,-0.978 0.686,-1.77 1.53,-1.77 0.845,0 1.53,0.792 1.53,1.77 z m 5.4,-0.29 c 0,0 -2.48,4.79 -6.99,4.79 -4.188,0 -7.01,-4.79 -7.01,-4.79 0,0 2.595,-4.21 7.01,-4.21 4.488,0 6.99,4.21 6.99,4.21 z m -4.212,0.288 c 0,-1.74 -1.218,-3.148 -2.72,-3.148 -1.5,0 -2.717,1.41 -2.717,3.148 0,1.738 1.22,3.15 2.72,3.15 1.5,0 2.72,-1.41 2.72,-3.15 z"
     id="path63"
     style="fill:#666666" />
  <path
     d="m 68.484002,301.77972 c -0.680001,0.3 -1.41,0.505 -2.175,0.596 0.782,-0.47 1.383,-1.21 1.665,-2.095 -0.732,0.432 -1.542,0.747 -2.404,0.917 -0.69,-0.736 -1.675,-1.196 -2.764,-1.196 -2.445,0 -4.242,2.28 -3.69,4.65 -3.146,-0.157 -5.937,-1.665 -7.804,-3.956 -0.992,1.702 -0.515,3.93 1.172,5.056 -0.62,-0.018 -1.205,-0.19 -1.716,-0.473 -0.04,1.755 1.217,3.395 3.038,3.76 -0.533,0.146 -1.117,0.18 -1.71,0.066 0.48,1.505 1.88,2.6 3.537,2.63 -1.592,1.247 -3.597,1.805 -5.606,1.568 1.678,1.076 3.668,1.703 5.807,1.703 7.03,0 11.003,-5.938 10.763,-11.264 0.738,-0.534 1.379999,-1.2 1.888,-1.96 z"
     id="path65"
     style="fill:#ffffff" />
  <path
     d="m 161.45598,109.14472 c 0,2.522 -2.05,4.57 -4.572,4.57 -2.522,0 -4.57,-2.048 -4.57,-4.57 0,-2.522 2.048,-4.572 4.57,-4.572 h 2.286 l 0.013,2.3 3.436,-3.44 -3.436,-3.43 v 2.287 h -2.3 c -3.784,0 -6.856,3.07 -6.856,6.857 0,3.787 3.074,6.856 6.86,6.856 3.786,0 6.857,-3.07 6.857,-6.857 h -2.285 z"
     id="path67"
     style="fill:#666666" />
  <path
     d="m 156.77598,51.799715 2.456,2.454 -5.89,5.89 -2.456,-2.453 5.89,-5.893 z m 2.922,1.963 -2.43,-2.43 1.04,-1.04 c 0.385,-0.383 1.007,-0.383 1.39,0 l 1.04,1.04 c 0.385,0.386 0.385,1.007 0,1.39 l -1.04,1.04 z m -9.425,7.243 -0.246,-0.245 0.646,-2.056 1.657,1.658 -2.056,0.644 z"
     id="path69"
     style="fill:#808080" />
  <g
     transform="translate(0.006,0.00171548)"
     id="g71"
     style="fill:#ffffff">
    <path
       d="m 214.097,56.47 c -0.532,-0.538 -1.24,-0.866 -1.986,-0.934 0.647,-0.58 1.057,-1.42 1.057,-2.358 0,-1.755 -1.424,-3.178 -3.178,-3.178 -1.677,0 -3.05,1.297 -3.168,2.942 1.492,0.645 2.54,2.13 2.54,3.857 0,0.63 -0.143,1.244 -0.41,1.803 0.383,0.2 0.738,0.46 1.048,0.772 0.792,0.795 1.243,1.897 1.232,3.02 v 0.043 l -0.03,0.53 h 3.79 l 0.03,-4.197 c 0.008,-0.86 -0.33,-1.682 -0.934,-2.29 z"
       id="path73" />
    <path
       d="m 207.27,59.168 c 0.646,-0.58 1.056,-1.42 1.056,-2.36 0,-1.753 -1.423,-3.176 -3.178,-3.176 -1.755,0 -3.177,1.423 -3.177,3.177 0,0.933 0.408,1.773 1.053,2.357 -1.652,0.128 -2.956,1.495 -2.97,3.18 l -0.03,0.632 h 10.136 l 0.03,-0.585 c 0.007,-0.856 -0.33,-1.682 -0.935,-2.29 -0.536,-0.54 -1.24,-0.867 -1.986,-0.935 z"
       id="path75" />
  </g>
  <path
     d="m 107.14876,306.00172 0,2.4 4.05537,0 c -0.16234,1.03 -1.22541,3.02 -4.05013,3.02 -2.4372,0 -4.42718,-1.98 -4.42718,-4.42 0,-2.442 1.98579,-4.423 4.42299,-4.423 1.39089,0 2.3199,0.58 2.84881,1.08 l 1.94076,-1.828 c -1.24636,-1.143 -2.85929,-1.83 -4.78643,-1.83 -3.95063,0 -7.14295,3.125 -7.14295,7 0,3.87 3.19442,7 7.14295,7 4.12345,0 6.85705,-2.84 6.85705,-6.84 0,-0.46 -0.0524,-0.814 -0.11311,-1.16 z"
     id="path81"
     style="fill:#ffffff;fill-rule:evenodd" />
  <path
     d="m 22.916001,212.70572 -2.89,0.045 0.03,-6.395 c 0,0 2.460001,0.185 3.06,-0.075 0.502,-0.13 3.833001,-1.93 4.84,-2.964 0.85,-0.762 1.14,-1.543 1.468,-2.554 0.262,-1.02 1.218,-0.8 1.637,-0.56 0.547,0.317 0.614,1.025 0.557,1.604 -0.073,0.44 -0.275,1.125 -0.604,1.744 -0.253,0.476 -0.674,0.885 -0.775,1.053 -0.128,0.206 -0.643,0.605 -0.442,0.67 1.097001,0.246 1.603001,0.314 3.160001,0.728 0.59,0.326 0.732999,0.417 0.9,1.035 0.119999,0.635 -0.223,1.375 -0.753,1.85 -0.100001,0.056 -0.554001,0.625 -0.554001,0.625 0,0 -1.172,3.304 -1.785,4.005 -0.39,0.348 -0.657,0.43 -1.107,0.485 -0.28,0 -1.489999,-0.056 -2.856999,-0.224 -1.648,-0.257 -2.726,-1.038 -3.882001,-1.072 z m 61.817,-7.326 -3.694999,3.56 0.84,5.062 -4.53,-2.412 -4.56,2.363 0.896,-5.05 -3.657,-3.6 5.087,-0.71 2.296,-4.59 2.247,4.613 z"
     id="path89"
     style="fill:#ffffff" />
  <path
     d="m 202.53298,210.89172 -2.506,0.038 0.028,-5.48 c 0,0 2.133,0.16 2.653,-0.064 0.437,-0.112 3.327,-1.654 4.2,-2.54 0.736,-0.655 0.99,-1.324 1.274,-2.19 0.227,-0.876 1.056,-0.688 1.42,-0.48 0.474,0.27 0.532,0.878 0.482,1.374 -0.062,0.378 -0.237,0.964 -0.523,1.494 -0.22,0.41 -0.585,0.76 -0.672,0.903 -0.11,0.177 -0.557,0.52 -0.383,0.576 0.95,0.21 1.39,0.27 2.74,0.625 0.51,0.277 0.635,0.356 0.78,0.885 0.105,0.543 -0.194,1.178 -0.653,1.585 -0.087,0.048 -0.48,0.536 -0.48,0.536 0,0 -1.017,2.835 -1.55,3.435 -0.337,0.3 -0.57,0.37 -0.96,0.416 -0.244,0 -1.29,-0.047 -2.478,-0.19 -1.43,-0.22 -2.365,-0.89 -3.368,-0.92 z"
     id="path91"
     style="fill:#666666" />
  <path
     d="m 227.02598,249.99972 c -3.865,0 -7,2.702 -7,6.036 0,1.738 0.86,3.3 2.223,4.402 -0.257,0.703 -0.692,1.622 -1.43,2.562 1.4,0 3.2,-0.195 4.587,-1.098 0.52,0.108 1.062,0.17 1.62,0.17 3.867,0 7,-2.703 7,-6.036 0,-3.333 -3.133,-6.036 -7,-6.036 z"
     id="path93"
     style="fill:#ffffff" />
  <path
     d="m 3.2995631,212.17426 -2.61440886,0.0412 0.0273188,-5.79278 c 0,0 2.22648216,0.16996 2.76807746,-0.066 0.455541,-0.1186 3.4708534,-1.74849 4.3812526,-2.68584 0.7690246,-0.69128 1.0312851,-1.39714 1.3297429,-2.31483 0.2369906,-0.92339 1.102998,-0.72489 1.482047,-0.50546 0.495153,0.28666 0.555254,0.92784 0.504032,1.45232 -0.06557,0.39955 -0.248601,1.01916 -0.546376,1.57916 -0.229478,0.43126 -0.610577,0.8029 -0.7014124,0.95511 -0.1161049,0.18582 -0.5825734,0.54731 -0.4009035,0.60883 0.9930399,0.22197 1.4513129,0.28222 2.8616459,0.65703 0.531351,0.293 0.662481,0.37608 0.812735,0.93544 0.109275,0.57586 -0.201477,1.24684 -0.680921,1.67746 -0.09084,0.0507 -0.5013,0.56634 -0.5013,0.56634 0,0 -1.062019,2.99343 -1.617273,3.62953 -0.35173,0.3152 -0.5941863,0.39003 -1.0012364,0.4395 -0.2547479,0 -1.3481828,-0.0507 -2.5864076,-0.20294 -1.4929724,-0.23275 -2.4689366,-0.94116 -3.5152466,-0.9716 z"
     id="path95"
     style="fill:none;stroke:#ffffff;stroke-width:1.31626678" />
  <path
     d="m 64.026392,205.53244 -3.359783,3.23701 0.764024,4.6014 -4.119532,-2.19276 -4.14291,2.14815 0.813942,-4.59253 -3.325639,-3.27458 4.622355,-0.64553 2.088667,-4.17129 2.043484,4.19427 z"
     id="path97"
     style="fill:none;stroke:#ffffff;stroke-width:1.27266896;stroke-linejoin:round" />
  <path
     d="m 162.45898,209.77772 c -0.733,0 -1.392,0.313 -1.86,0.814 l -5.467,-2.723 c 0.02,-0.127 0.032,-0.257 0.032,-0.39 0,-0.13 -0.013,-0.257 -0.03,-0.38 l 5.46,-2.694 c 0.467,0.505 1.13,0.82 1.865,0.82 1.418,0 2.568,-1.168 2.568,-2.61 0,-1.444 -1.15,-2.613 -2.566,-2.613 -1.416,0 -2.57,1.17 -2.57,2.612 0,0.13 0.014,0.256 0.03,0.38 l -5.457,2.693 c -0.468,-0.504 -1.13,-0.82 -1.866,-0.82 -1.42,0 -2.57,1.17 -2.57,2.612 0,1.443 1.15,2.612 2.57,2.612 0.733,0 1.39,-0.316 1.86,-0.816 l 5.467,2.723 c -0.02,0.127 -0.032,0.257 -0.032,0.39 0,1.443 1.15,2.612 2.568,2.612 1.418,0 2.57,-1.17 2.57,-2.613 0,-1.443 -1.15,-2.612 -2.57,-2.612 z"
     id="path99"
     style="fill:#777777" />
  <path
     d="m 157.51998,300.00172 c -4.142,0 -7.5,3.358 -7.5,7.5 0,3.07 1.847,5.71 4.49,6.87 -0.022,-0.524 -0.005,-1.153 0.13,-1.723 l 0.964,-4.086 c 0,0 -0.24,-0.477 -0.24,-1.185 0,-1.112 0.645,-1.942 1.448,-1.942 0.682,0 1.01,0.512 1.01,1.126 0,0.685 -0.436,1.71 -0.66,2.66 -0.19,0.797 0.398,1.445 1.183,1.445 1.42,0 2.376,-1.825 2.376,-3.987 0,-1.644 -1.107,-2.874 -3.12,-2.874 -2.276,0 -3.694,1.696 -3.694,3.59 0,0.655 0.193,1.116 0.495,1.472 0.14,0.164 0.158,0.23 0.108,0.418 l -0.153,0.602 c -0.05,0.19 -0.204,0.258 -0.376,0.188 -1.047,-0.428 -1.535,-1.575 -1.535,-2.865 0,-2.13 1.798,-4.686 5.36,-4.686 2.865,0 4.75,2.072 4.75,4.296 0,2.94 -1.637,5.14 -4.048,5.14 -0.81,0 -1.57,-0.44 -1.832,-0.936 0,0 -0.434,1.73 -0.527,2.062 -0.16,0.58 -0.47,1.156 -0.755,1.606 0.675,0.2 1.387,0.308 2.126,0.308 4.142,0 7.5,-3.358 7.5,-7.5 0,-4.142 -3.358,-7.5 -7.5,-7.5 z m -142.519979,2.5 c 0,-1.312 -1.186,-2.5 -2.5,-2.5 H 2.4999997 C 1.1869995,300.00172 0,301.18972 0,302.50172 v 10 c 0,1.315 1.1869995,2.5 2.4999997,2.5 h 5.0000001 v -5.665 h -1.831 v -2.5 h 1.8330003 v -0.976 c 0,-1.68 1.2620002,-3.194 2.8120019,-3.194 h 2.022 v 2.5 h -2.024 c -0.22,0 -0.4780016,0.27 -0.4780016,0.672 v 0.995 h 2.5000016 v 2.5 H 9.8340001 v 5.668 h 2.6650019 c 1.313,0 2.5,-1.185 2.5,-2.5 v -10 z"
     id="path101"
     style="fill:#ffffff" />
  <path
     d="m 15.001002,252.50172 c 0,-1.312 -1.187,-2.5 -2.5,-2.5 H 2.5009996 c -1.3140001,0 -2.4999996,1.188 -2.4999996,2.5 v 10 c 0,1.315 1.1859995,2.5 2.4999996,2.5 h 5.0000002 v -5.665 H 5.6679995 v -2.5 h 1.8330002 v -0.976 c 0,-1.68 1.2620007,-3.194 2.8120023,-3.194 h 2.022 v 2.5 h -2.024 c -0.220001,0 -0.4780018,0.27 -0.4780018,0.672 v 0.995 h 2.5000008 v 2.5 H 9.8330001 v 5.668 h 2.6650009 c 1.313001,0 2.5,-1.185 2.5,-2.5 v -10 z"
     id="path103"
     style="fill:#555555" />
  <path
     d="M 108.76098,234.00172 H 100.011 c -1.725998,0 -3.124998,1.4 -3.124998,3.125 v 8.75 c 0,1.725 1.4,3.125 3.124998,3.125 h 8.74998 c 1.726,0 3.125,-1.4 3.125,-3.125 v -8.75 c 0,-1.726 -1.4,-3.125 -3.125,-3.125 z m -6.458,10.417 c -1.613,0 -2.916979,-1.305 -2.916979,-2.917 0,-1.613 1.303979,-2.917 2.916979,-2.917 0.787,0 1.446,0.287 1.954,0.762 l -0.79,0.763 c -0.216,-0.208 -0.596,-0.45 -1.162,-0.45 -0.996,0 -1.808,0.825 -1.808,1.842 0,1.017 0.81,1.842 1.807,1.842 1.154,0 1.587,-0.83 1.654,-1.258 h -1.652 v -1 h 2.754 c 0.026,0.145 0.047,0.29 0.047,0.483 0,1.666 -1.118,2.85 -2.8,2.85 z m 7.083,-2.5 h -1.25 v 1.25 h -0.834 v -1.25 h -1.25 v -0.833 h 1.25 v -1.25 h 0.834 v 1.25 h 1.25 v 0.833 z"
     id="path105"
     style="fill:none" />
  <path
     d="m 104.16098,350.00172 c -2.3,0 -4.15697,1.803 -4.15697,4.03 v 6.94 c 0,2.227 1.85797,4.03 4.15697,4.03 h 6.687 c 2.3,0 4.156,-1.803 4.156,-4.03 v -6.94 c 0,-2.227 -1.857,-4.03 -4.156,-4.03 h -6.687 z m 7.5,2.406 c 0.552,0 1,0.448 1,1 0,0.553 -0.448,1 -1,1 -0.553,0 -1,-0.447 -1,-1 0,-0.552 0.447,-1 1,-1 z m -4.157,1.063 c 2.21,0 4,1.79 4,4 0,2.207 -1.79,4 -4,4 -2.21,0 -4,-1.793 -4,-4 0,-2.21 1.79,-4 4,-4 z m 0,1.5 c -1.39,0 -2.53,1.14 -2.53,2.53 0,1.39 1.14,2.53 2.53,2.53 1.392,0 2.532,-1.14 2.532,-2.53 0,-1.39 -1.14,-2.53 -2.532,-2.53 z"
     id="path107"
     style="fill:#555555" />
  <path
     d="m 204.16198,300.00172 c -2.298,0 -4.156,1.803 -4.156,4.03 v 6.94 c 0,2.227 1.858,4.03 4.156,4.03 h 6.688 c 2.298,0 4.156,-1.803 4.156,-4.03 v -6.94 c 0,-2.227 -1.858,-4.03 -4.156,-4.03 h -6.688 z m 7.5,2.406 c 0.552,0 1,0.448 1,1 0,0.553 -0.448,1 -1,1 -0.552,0 -1,-0.447 -1,-1 0,-0.552 0.448,-1 1,-1 z m -4.156,1.063 c 2.21,0 4,1.79 4,4 0,2.207 -1.79,4 -4,4 -2.21,0 -4,-1.793 -4,-4 0,-2.21 1.79,-4 4,-4 z m 0,1.5 c -1.39,0 -2.53,1.14 -2.53,2.53 0,1.39 1.14,2.53 2.53,2.53 1.39,0 2.53,-1.14 2.53,-2.53 0,-1.39 -1.14,-2.53 -2.53,-2.53 z"
     id="path109"
     style="fill:#ffffff" />
  <path
     d="m 19.598278,117.76187 -5.212443,-5.23461 c 2.179824,-2.9033 1.911922,-7.31196 -0.572412,-9.94966 -2.387823,-2.67684 -6.647628,-3.3854 -9.7459743,-1.56281 -2.9785392,1.65856 -4.64003199,5.3645 -3.83133361,8.70076 0.75961114,3.48862 4.08093191,6.2279 7.65767411,6.17795 1.6473445,0.008 3.2921968,-0.52871 4.6283788,-1.4987 1.769651,1.77096 3.527655,3.55524 5.304795,5.31704 1.073272,0.95417 2.936939,-0.64944 1.90277,-1.80093 l -0.133119,-0.14987 z M 7.9620126,114.02346 c -3.0717218,0.0833 -5.8988378,-2.56693 -6.0436049,-5.65008 -0.2412783,-2.89164 1.8528509,-5.77413 4.696607,-6.36112 2.7405843,-0.6536 5.8197943,0.86341 6.9055463,3.49112 1.184759,2.66019 0.174719,6.11634 -2.351215,7.60421 -0.956793,0.59615 -2.0799851,0.92087 -3.2031732,0.91587 z"
     id="path3035"
     style="fill:#636363;fill-opacity:1" />
  <path
     d="m 216.65598,15.095716 -4.43,-4.45 c 1.853,-2.4660004 1.626,-6.2130004 -0.486,-8.4550004 -2.03,-2.27700012 -5.65,-2.88000012 -8.283,-1.33000012 -2.53,1.41000012 -3.942,4.56000012 -3.255,7.39600012 0.646,2.9630004 3.47,5.2940004 6.51,5.2500004 1.4,0.007 2.8,-0.45 3.934,-1.273 1.503,1.505 2.996,3.02 4.507,4.52 0.913,0.81 2.497,-0.553 1.618,-1.532 l -0.113,-0.127 z m -9.89,-3.178 c -2.61,0.072 -5.013,-2.1800004 -5.137,-4.8000004 -0.205,-2.46 1.575,-4.91 3.99,-5.4080001 2.33,-0.555 4.947,0.7340001 5.87,2.9680001 1.007,2.26 0.148,5.197 -2,6.4620004 -0.81,0.507 -1.765,0.783 -2.722,0.778 z"
     id="path17-1"
     style="fill:#636363" />
  <path
     d="m 100.02944,150.00172 h 22 v 1.99999 h -22 z m 0,6.99999 h 22 v 2 h -22 z m 0,7 h 22 v 2 h -22 z"
     id="path3044"
     style="fill:#ffffff" />
  <g
     transform="translate(-50.023897,0.00171548)"
     id="g3046"
     style="fill:#ffffff">
    <path
       d="m 57.52,159.055 c 2.773,0 3.77,-2.52 4.032,-4.588 0.322,-2.55 -1.007,-4.467 -4.03,-4.467 -3.024,0 -4.353,1.918 -4.032,4.467 0.262,2.07 1.26,4.59 4.03,4.588 z"
       id="path3048"
       style="fill:#ffffff" />
    <path
       d="m 65.02,165.053 c -0.03,-0.803 -0.134,-1.61 -0.288,-2.4 -0.187,-0.957 -0.426,-2.36 -1.347,-2.985 -0.532,-0.36 -1.222,-0.48 -1.832,-0.696 -0.297,-0.106 -0.563,-0.21 -0.812,-0.33 -0.84,0.837 -1.94,1.276 -3.22,1.276 -1.277,0 -2.375,-0.44 -3.22,-1.277 -0.247,0.12 -0.513,0.227 -0.81,0.333 -0.61,0.217 -1.3,0.335 -1.832,0.696 -0.92,0.623 -1.16,2.027 -1.347,2.984 -0.153,0.79 -0.257,1.597 -0.287,2.4 -0.023,0.622 0.315,0.71 0.888,0.897 0.72,0.236 1.46,0.41 2.206,0.553 1.44,0.276 2.927,0.49 4.406,0.498 1.48,-0.01 2.965,-0.22 4.406,-0.497 0.746,-0.143 1.487,-0.317 2.205,-0.552 0.575,-0.187 0.913,-0.274 0.89,-0.896 z"
       id="path3050"
       style="fill:#ffffff" />
  </g>
  <path
     d="m 150.93572,380.90799 5.39954,5.79966 5.39953,-5.79966"
     id="path4"
     style="fill:none;stroke:#878a9e;stroke-width:1.79999995;stroke-linecap:round;stroke-linejoin:round;stroke-miterlimit:4;stroke-opacity:1;stroke-dasharray:none" />
  <path
     d="m 108.02944,250.00171 -1.41,1.41 5.58,5.59 h -12.17 v 2 h 12.17 l -5.58,5.59 1.41,1.41 8,-8 z"
     id="path6"
     style="fill:#ffffff" />
  <g
     transform="translate(-0.9927427,0)"
     id="g3855">
    <path
       d="m 60.782322,53.923745 c -0.103271,0.248656 -0.46469,0.508086 -0.660156,0.322864 l -1.830791,-1.734835 0,7.517648 c 0,0.367917 -0.423704,0.666621 -0.79162,0.666621 -0.36804,0 -0.791743,-0.298704 -0.791743,-0.666621 l 0,-7.285415 -1.786597,1.502602 c -0.206087,0.173328 -0.512569,-0.162597 -0.615962,-0.411252 -0.103271,-0.249388 -0.134409,-0.447618 0.05626,-0.63829 l 2.666727,-2.666606 c 0.260619,-0.26074 0.68188,-0.26074 0.94262,0 l 2.666606,2.666606 c 0.190672,0.190672 0.248045,0.477291 0.144652,0.726678 z"
       id="path3043"
       style="fill:#ffffff;stroke:#ffffff;stroke-width:0.63100004;stroke-miterlimit:4;stroke-opacity:1;stroke-dasharray:none" />
    <path
       d="m 61.773351,65.001297 -8.490406,4e-4 c -1.102653,5.2e-5 -1.999985,-0.897333 -1.999985,-1.999985 l 0,-5.020159 c 0,-0.368039 0.298582,-0.666621 0.666621,-0.666621 0.368039,0 0.666621,0.298582 0.666621,0.666621 l 0,5.020159 c 0,0.367429 0.299314,0.66676 0.666743,0.666743 l 8.490406,-4e-4 c 0.367307,-1.7e-5 0.666621,-0.299314 0.666621,-0.666743 l 0,-5.020159 c 0,-0.368039 0.298704,-0.666621 0.666621,-0.666621 0.368039,0 0.666743,0.298582 0.666743,0.666621 l 0,5.020159 c 0,1.102652 -0.897332,1.999933 -1.999985,1.999985 z"
       id="path3045"
       style="fill:#ffffff;stroke:#ffffff;stroke-width:0.53100002;stroke-miterlimit:4;stroke-opacity:1;stroke-dasharray:none" />
  </g>
  <path
     d="m 10.791794,56.75365 c -0.103271,-0.248655 -0.506329,-0.505351 -0.704351,-0.322863 l -1.7865959,1.646446 0,-7.075706 c 0,-0.367918 -0.4237039,-0.666621 -0.7916208,-0.666621 -0.3680393,0 -0.7917429,0.298703 -0.7917429,0.666621 l 0,6.976055 -1.8749847,-1.635184 c -0.2029484,-0.176992 -0.5125695,0.162597 -0.6159621,0.411252 -0.1032708,0.249388 -0.04602,0.536006 0.1446523,0.726679 l 2.6667273,2.666606 c 0.2606183,0.26074 0.6818798,0.26074 0.94262,0 l 2.6666058,-2.666606 c 0.190672,-0.190673 0.248045,-0.477291 0.144652,-0.726679 z"
     id="path3841"
     style="fill:#ffffff;stroke:#ffffff;stroke-width:0.63100004;stroke-miterlimit:4;stroke-opacity:1;stroke-dasharray:none" />
  <path
     d="m 12.783153,65.001297 -10.4854234,4e-4 c -1.1026527,3.1e-5 -1.99998469,-0.897333 -1.99998469,-1.999985 l 0,-6.092081 c 0,-0.368039 0.2985817,-0.666621 0.66662087,-0.666621 0.36803912,0 0.66662082,0.298582 0.66662082,0.666621 l 0,6.092081 c 0,0.367429 0.2993141,0.666757 0.666743,0.666743 l 10.4854234,-4e-4 c 0.367307,-1.4e-5 0.666621,-0.299314 0.666621,-0.666743 l 0,-6.047887 c 0,-0.368039 0.298704,-0.666621 0.666621,-0.666621 0.368039,0 0.666743,0.298582 0.666743,0.666621 l 0,6.047887 c 0,1.102652 -0.897332,1.999942 -1.999985,1.999985 z"
     id="path3843"
     style="fill:#ffffff;stroke:#ffffff;stroke-width:0.53100002;stroke-miterlimit:4;stroke-opacity:1;stroke-dasharray:none" />
  <g
     transform="translate(149.02745,119.00199)"
     id="g3826">
    <g
       transform="scale(0.98395901,1.0163025)"
       id="text3921"
       style="font-size:21.1580925px;font-style:normal;font-variant:normal;font-weight:normal;font-stretch:normal;line-height:125%;letter-spacing:0px;word-spacing:0px;fill:#ffffff;fill-opacity:1;stroke:none;font-family:VomZom;-inkscape-font-specification:VomZom">
      <g
         id="g3056">
        <rect
           width="38"
           height="38"
           rx="2"
           ry="2"
           x="-148.99802"
           y="265.99973"
           transform="scale(1.0163025,0.98395901)"
           id="rect3919"
           style="fill:#191b26;fill-opacity:1" />
        <path
           d="m -138.97318,270.12808 c -2.08557,0.0519 -3.81853,0.76809 -5.19889,2.14843 -1.38035,1.38037 -2.0965,3.11333 -2.14843,5.19889 l 0,13.28422 2.91925,0 0,-5.9041 4.42807,0 c 2.08693,-0.0533 3.82536,-0.77491 5.21529,-2.16483 1.38991,-1.38992 2.11152,-3.12835 2.16484,-5.21529 -0.0533,-2.08556 -0.77493,-3.81852 -2.16484,-5.19889 -1.38993,-1.38034 -3.12836,-2.09649 -5.21529,-2.14843 z m -4.42807,11.80819 0,-4.46087 c 0.0308,-1.26076 0.46125,-2.30628 1.29152,-3.13655 0.83026,-0.83026 1.87578,-1.26076 3.13655,-1.29153 1.27648,0.0308 2.33157,0.46127 3.16526,1.29153 0.83366,0.83027 1.26554,1.87579 1.29562,3.13655 -0.0301,1.27649 -0.46196,2.33158 -1.29562,3.16525 -0.8337,0.83369 -1.88878,1.26556 -3.16526,1.29562 z"
           id="path3051"
           style="font-size:32.8009758px;font-style:normal;font-variant:normal;font-stretch:normal;fill:#ffffff;font-family:Rezland;-inkscape-font-specification:Rezland" />
        <path
           d="m -125.69797,279.35298 0.10518,0 4.10231,5.46974 3.57638,0 -5.57494,-7.57349 4.94381,-7.15275 -3.57637,0 -3.47119,5.049 -0.10518,0 -3.47119,-5.049 -3.57637,0 4.94381,7.15275 -5.57493,7.57349 3.57637,0 z"
           id="path3053"
           style="font-size:21.03775597px;font-style:normal;font-variant:normal;font-weight:bold;font-stretch:normal;fill:#ffffff;font-family:Prosto Sans;-inkscape-font-specification:Prosto Sans Bold" />
      </g>
    </g>
  </g>
  <g
     transform="translate(60.529437,393.00171)"
     id="g3058"
     style="stroke:none">
    <path
       d="M 0,0 H 24 V 24 H 0 z"
       id="path3048-1"
       style="fill:none;stroke:none" />
  </g>
  <g
     transform="matrix(0.63888889,0,0,0.63888889,50.362771,100.34072)"
     id="g3840"
     style="fill:#ffffff;fill-rule:evenodd;stroke:#ffffff;stroke-width:1.04347825;stroke-opacity:1">
    <path
       d="M 12.02,0 C 18.634,0.011 24,5.383 24,12 24,18.623 18.624,24 12,24 5.377,24 0,18.623 0,12 0,5.383 5.367,0.011 11.981,0 h 0.039 z m 3.694,16 H 8.287 c 0.639,4.266 2.242,7 3.713,7 1.472,0 3.075,-2.734 3.714,-7 m 6.535,0 h -5.523 c -0.426,2.985 -1.321,5.402 -2.485,6.771 3.669,-0.76 6.671,-3.35 8.008,-6.771 M 7.275,16 H 1.751 c 1.338,3.421 4.34,6.011 8.009,6.771 C 8.596,21.402 7.701,18.985 7.275,16 M 7.152,9 H 1.416 c -0.331,1.166 -0.741,3.389 0,6 h 5.736 c -0.188,-1.814 -0.215,-3.925 0,-6 m 8.691,0 H 8.158 c -0.195,1.8 -0.225,3.927 0,6 h 7.685 c 0.196,-1.811 0.224,-3.93 0,-6 m 6.742,0 h -5.736 c 0.062,0.592 0.308,3.019 0,6 h 5.736 c 0.741,-2.612 0.331,-4.835 0,-6 M 9.76,1.229 C 6.091,1.989 3.089,4.579 1.751,8 H 7.275 C 7.701,5.015 8.596,2.597 9.76,1.229 M 15.714,8 C 15.075,3.734 13.472,1 12,1 10.529,1 8.926,3.734 8.287,8 h 7.427 z M 14.241,1.229 C 15.405,2.597 16.3,5.015 16.726,8 h 5.523 C 20.912,4.579 17.91,1.989 14.241,1.229"
       id="path3832"
       style="fill:#ffffff;stroke:#ffffff;stroke-width:1.04347825;stroke-opacity:1" />
  </g>
</svg>
